<svg clip-rule="evenodd" fill-rule="evenodd" height="512" stroke-linejoin="round" stroke-miterlimit="2" viewBox="0 0 64 64" width="512" xmlns="http://www.w3.org/2000/svg" xmlns:xlink="http://www.w3.org/1999/xlink"><linearGradient id="lg1"><stop offset="0" stop-color="#559aff"/><stop offset="1" stop-color="#2e69ef"/></linearGradient><linearGradient id="_Linear1" gradientTransform="matrix(-2.876 9.856 -9.856 -2.876 41.431 33.197)" gradientUnits="userSpaceOnUse" x1="0" x2="1" xlink:href="#lg1" y1="0" y2="0"/><linearGradient id="_Linear2" gradientTransform="matrix(23.108 21.055 -21.055 23.108 13.965 16.32)" gradientUnits="userSpaceOnUse" x1="0" x2="1" y1="0" y2="0"><stop offset="0" stop-color="#fff"/><stop offset="1" stop-color="#e9f3fc"/></linearGradient><linearGradient id="lg2"><stop offset="0" stop-color="#a4bbdb"/><stop offset="1" stop-color="#8da3be"/></linearGradient><linearGradient id="_Linear3" gradientTransform="matrix(6.674 29.814 -29.814 6.674 30.761 9.933)" gradientUnits="userSpaceOnUse" x1="0" x2="1" xlink:href="#lg2" y1="0" y2="0"/><linearGradient id="_Linear4" gradientTransform="matrix(8.408 25.613 -25.613 8.408 15.353 9.087)" gradientUnits="userSpaceOnUse" x1="0" x2="1" y1="0" y2="0"><stop offset="0" stop-color="#cadcf0"/><stop offset="1" stop-color="#a4bbdb"/></linearGradient><linearGradient id="_Linear5" gradientTransform="matrix(-4.841 9.301 -9.301 -4.841 53.484 47.172)" gradientUnits="userSpaceOnUse" x1="0" x2="1" xlink:href="#lg2" y1="0" y2="0"/><linearGradient id="_Linear6" gradientTransform="matrix(-3.952 8.776 -8.776 -3.952 52.217 45.905)" gradientUnits="userSpaceOnUse" x1="0" x2="1" y1="0" y2="0"><stop offset="0" stop-color="#e9f3fc"/><stop offset="1" stop-color="#cadcf0"/></linearGradient><linearGradient id="_Linear7" gradientTransform="matrix(5.11 16.444 -16.444 5.11 21.412 17.983)" gradientUnits="userSpaceOnUse" x1="0" x2="1" xlink:href="#lg1" y1="0" y2="0"/><linearGradient id="_Linear9" gradientTransform="matrix(-12.233 9.099 -9.099 -12.233 54.406 5.43)" gradientUnits="userSpaceOnUse" x1="0" x2="1" xlink:href="#lg1" y1="0" y2="0"/><g id="Exp-3.-G"><path d="m42.251 31.697-10.607 10.606s3.772-1.178 9.193.707c.912.317 2.438-1.209 2.121-2.121-1.885-5.421-.707-9.192-.707-9.192z" fill="url(#_Linear1)"/><path d="m13.864 13.916c6.44-6.439 16.895-6.439 23.335 0 6.439 6.44 6.439 16.895 0 23.335-6.44 6.439-16.895 6.439-23.335 0-6.439-6.44-6.439-16.895 0-23.335z" fill="url(#_Linear2)"/><path d="m35.066 12.114c.748.531 1.462 1.132 2.133 1.802 6.439 6.44 6.439 16.895 0 23.335-6.44 6.439-16.895 6.439-23.335 0-.379-.38-.736-.773-1.071-1.178 6.242 2.028 13.376.564 18.332-4.392 5.286-5.286 6.6-13.05 3.941-19.567z" fill="#e5eef8"/><path d="m12.45 12.502c7.22-7.22 18.943-7.22 26.163 0s7.22 18.943 0 26.163-18.943 7.22-26.163 0-7.22-18.943 0-26.163zm2.121 2.121c6.049-6.049 15.872-6.049 21.921 0s6.049 15.872 0 21.921-15.872 6.049-21.921 0-6.049-15.872 0-21.921z" fill="url(#_Linear3)"/><path d="m8.957 33.81c-3.432-6.919-2.268-15.547 3.493-21.308 5.41-5.41 13.348-6.766 20.027-4.068.048.613.073 1.234.073 1.861 0 .484-.015.965-.044 1.443-5.811-2.926-13.085-1.964-17.935 2.885-5.141 5.141-5.913 13.008-2.314 18.968-1.054.144-2.13.219-3.222.219z" fill="url(#_Linear4)"/><path d="m40.027 46.443c-1.757-1.757-1.757-4.606 0-6.364 1.757-1.757 4.607-1.757 6.364 0l14.496 14.496c.39.39-.719 2.133-2.475 3.889s-3.499 2.865-3.889 2.475z" fill="url(#_Linear5)"/><path d="m40.027 46.443c-1.757-1.757-1.757-4.606 0-6.364 1.757-1.757 4.607-1.757 6.364 0l13.12 13.12c.39.39-.719 2.133-2.475 3.889s-3.499 2.865-3.889 2.475z" fill="url(#_Linear6)"/><path d="m23.413 22.435c-.023-.953.335-1.649.887-2.057.868-.64 2.165-.613 2.869.18.302.341.477.823.482 1.433.012 1.463-.674 2.318-1.346 3.203-.904 1.193-1.807 2.419-1.919 4.466-.03.552.394 1.023.945 1.053s1.023-.393 1.053-.944c.084-1.555.828-2.461 1.515-3.367.92-1.213 1.769-2.423 1.752-4.427-.01-1.178-.403-2.087-.987-2.745-1.364-1.536-3.869-1.702-5.551-.462-1.008.744-1.741 1.976-1.7 3.714.013.552.472.989 1.024.976.551-.013.989-.471.976-1.023z" fill="url(#_Linear7)"/><circle cx="25.292" cy="33.197" fill="url(#_Linear7)" r="1.23"/><g fill="url(#_Linear9)"><path d="m43.288 8.497 3-5c.284-.473.131-1.088-.343-1.372-.473-.283-1.088-.13-1.372.343l-3 5c-.284.474-.13 1.089.343 1.372.474.284 1.088.131 1.372-.343z"/><path d="m48.019 11.792 11-8c.446-.325.545-.951.221-1.397-.325-.447-.951-.545-1.397-.221l-11 8c-.447.325-.545.951-.221 1.397.325.447.951.545 1.397.221z"/><path d="m49.673 17.953 8-2c.536-.134.862-.677.728-1.213-.134-.535-.677-.861-1.213-.727l-8 2c-.535.134-.861.677-.727 1.213.134.535.677.861 1.212.727z"/></g></g></svg>